{"title":"90210 - S04E10 - Smoked Turkey - 720p WEB.DL H.264 {$H@uN}","uid":6842122,"size":410851640,"categoryP":"video","categoryS":"hd___tv_shows","magnet":"?xt=urn:btih:a49f00241d6971acb886fa49333409e1dbaeab83&amp;dn=90210+-+S04E10+-+Smoked+Turkey+-+720p+WEB.DL+H.264+%7B%24H%40uN%7D&amp;tr=udp%3A%2F%2Ftracker.openbittorrent.com%3A80&amp;tr=udp%3A%2F%2Fopen.demonii.com%3A1337&amp;tr=udp%3A%2F%2Ftracker.coppersurfer.tk%3A6969&amp;tr=udp%3A%2F%2Fexodus.desync.com%3A6969","seeders":0,"leechers":1,"uploader":"ShaunGP","files":-1,"time":1322203831,"description":"&quot;WEB-DL means straight from iTunes where they release &quot;Bluray&quot; quality episodes.\n Such episodes are without any Logo and Caps.&quot;\n\n90210 - S04E10 - Smoked Turkey - 720p WEB.DL H.264 {$H@uN}\n\nGeneral:\n\nComplete name                  : 90210 - S04E10 - Smoked Turkey - 720p WEB.DL H.264 {$H@uN}.mkv\nOriginal air date              : November 22 2011\nGenre                          : Teen Drama\nLanguage                       : English\nEncoder                        : $H@uN\nFile format                    : Matroska\nFile size                      : 392 MiB\nDuration                       : 42mn 6s\nOverall bit rate               : 1 301 Kbps\n\n\nVideo:\n\nFormat                         : AVC\nDuration                       : 42mn 6s\nBit rate                       : 1 200 Kbps\nWidth                          : 1 280 pixels\nHeight                         : 720 pixels\nDisplay aspect ratio           : 16:9\nFrame rate mode                : Variable\nFrame rate                     : 23.976 fps\nColor space                    : YUV\nChroma subsampling             : 4:2:0\nBit depth                      : 8 bits\nScan type                      : Progressive\nBits/(Pixel*Frame)             : 0.054\nStream size                    : 355 MiB (91%)\nWriting library                : x264 core 112\nLanguage                       : English\nSubtitles                      : Seperate .srt file included\n\n\nAudio:\n\nFormat                         : AC-3\nMode extension                 : CM (complete main)\nCodec ID                       : A_AC3\nDuration                       : 42mn 6s\nBit rate mode                  : Constant\nBit rate                       : 96 Kbps\nChannel(s)                     : 2 channels\nChannel positions              : Front: L R\nSampling rate                  : 48.0 KHz\nBit depth                      : 16 bits\nCompression mode               : Lossy\nStream size                    : 28.9 MiB (7%)\nLanguage                       : English\n\nScreen Shots:\n &lt;a href=&quot;\nhttp://imagestorage.org/images/59461851079539394384.jpg&quot; rel=&quot;nofollow&quot; target=&quot;_NEW&quot;&gt;\nhttp://imagestorage.org/images/59461851079539394384.jpg&lt;/a&gt;\n &lt;a href=&quot;\nhttp://imagestorage.org/images/60575397864107318296.jpg&quot; rel=&quot;nofollow&quot; target=&quot;_NEW&quot;&gt;\nhttp://imagestorage.org/images/60575397864107318296.jpg&lt;/a&gt;\n &lt;a href=&quot;\nhttp://imagestorage.org/images/13219840333100100511.jpg&quot; rel=&quot;nofollow&quot; target=&quot;_NEW&quot;&gt;\nhttp://imagestorage.org/images/13219840333100100511.jpg&lt;/a&gt;\n\n\nEncoder's Notes:\n\nDo Provide Feedback.\nKeep in Mind, you are charged nothing for Downloading a TORRENT,\nso its your duty to SEED n keep the torrent alive for as long as possible.\nEnjoy..!!! Keep Seeding till 1:1 ratio...","torrent":{"xt":"urn:btih:a49f00241d6971acb886fa49333409e1dbaeab83","amp;dn":"90210+-+S04E10+-+Smoked+Turkey+-+720p+WEB.DL+H.264+%7B%24H%40uN%7D","amp;tr":["udp%3A%2F%2Ftracker.openbittorrent.com%3A80","udp%3A%2F%2Fopen.demonii.com%3A1337","udp%3A%2F%2Ftracker.coppersurfer.tk%3A6969","udp%3A%2F%2Fexodus.desync.com%3A6969"],"infoHash":"a49f00241d6971acb886fa49333409e1dbaeab83","infoHashBuffer":{"type":"Buffer","data":[164,159,0,36,29,105,113,172,184,134,250,73,51,52,9,225,219,174,171,131]},"announce":[],"urlList":[]}}